<svg width="24" height="22" viewBox="0 0 24 22" fill="none" xmlns="http://www.w3.org/2000/svg">
<path d="M2.11953 5.74957C2.11953 3.69795 3.8631 2.02783 6.00564 2.02783H17.9944C20.1387 2.02783 21.8819 3.69795 21.8819 5.74957V16.2491C21.8819 18.3021 20.1387 19.9708 17.9944 19.9708H6.00564C3.8631 19.9708 2.11953 18.3021 2.11953 16.2491V5.74957ZM17.9944 0H6.00564C2.69428 0 0 2.5794 0 5.74957V16.2491C0 19.4206 2.69428 22 6.00564 22H17.9944C21.3062 22 24 19.4206 24 16.2491V5.74957C24 2.5794 21.3062 0 17.9944 0Z" fill="#2F3031"/>
<path d="M12.002 7.67823C13.914 7.67823 15.4703 9.16815 15.4703 10.9986C15.4703 12.8287 13.914 14.3186 12.002 14.3186C10.09 14.3186 8.5337 12.8287 8.5337 10.9986C8.5337 9.16815 10.09 7.67823 12.002 7.67823ZM12.002 16.3477C15.0828 16.3477 17.5884 13.9476 17.5884 10.9986C17.5884 8.04917 15.0828 5.65039 12.002 5.65039C8.92162 5.65039 6.41602 8.04917 6.41602 10.9986C6.41602 13.9476 8.92162 16.3477 12.002 16.3477Z" fill="#2F3031"/>
<path d="M18.1053 6.51531C18.9359 6.51531 19.6109 5.86947 19.6109 5.07428C19.6109 4.28042 18.9359 3.63281 18.1053 3.63281C17.2761 3.63281 16.5996 4.28042 16.5996 5.07428C16.5996 5.86947 17.2761 6.51531 18.1053 6.51531Z" fill="#2F3031"/>
</svg>
