<svg width="24" height="24" viewBox="0 0 24 24" fill="none" xmlns="http://www.w3.org/2000/svg">
<path d="M2.11953 6.27226C2.11953 4.03412 3.8631 2.21218 6.00564 2.21218H17.9944C20.1387 2.21218 21.8819 4.03412 21.8819 6.27226V17.7263C21.8819 19.9659 20.1387 21.7864 17.9944 21.7864H6.00564C3.8631 21.7864 2.11953 19.9659 2.11953 17.7263V6.27226ZM17.9944 0H6.00564C2.69428 0 0 2.81389 0 6.27226V17.7263C0 21.1861 2.69428 24 6.00564 24H17.9944C21.3062 24 24 21.1861 24 17.7263V6.27226C24 2.81389 21.3062 0 17.9944 0Z" fill="#2F3031"/>
<path d="M12.002 8.37625C13.914 8.37625 15.4703 10.0016 15.4703 11.9985C15.4703 13.9949 13.914 15.6203 12.002 15.6203C10.09 15.6203 8.5337 13.9949 8.5337 11.9985C8.5337 10.0016 10.09 8.37625 12.002 8.37625ZM12.002 17.8339C15.0828 17.8339 17.5884 15.2156 17.5884 11.9985C17.5884 8.78091 15.0828 6.16406 12.002 6.16406C8.92162 6.16406 6.41602 8.78091 6.41602 11.9985C6.41602 15.2156 8.92162 17.8339 12.002 17.8339Z" fill="#2F3031"/>
<path d="M18.1053 7.10743C18.9359 7.10743 19.6109 6.40288 19.6109 5.5354C19.6109 4.66937 18.9359 3.96289 18.1053 3.96289C17.2761 3.96289 16.5996 4.66937 16.5996 5.5354C16.5996 6.40288 17.2761 7.10743 18.1053 7.10743Z" fill="#2F3031"/>
</svg>
