<svg width="112" height="112" viewBox="0 0 112 112" fill="none" xmlns="http://www.w3.org/2000/svg">
<rect width="112" height="112" rx="32" fill="#4C3396"/>
<g clip-path="url(#clip0_292_3057)">
<path d="M55.9796 15.9062C47.3849 15.9062 40.2062 22.0517 38.3301 30.2917C47.6469 32.2553 54.677 40.7426 54.677 50.8881C54.677 51.6372 54.6345 52.379 54.5566 53.1135C55.031 53.1499 55.4982 53.1862 55.9796 53.1862C65.9973 53.1862 74.1248 44.8444 74.1248 34.5462C74.1248 24.2481 66.0044 15.9062 55.9796 15.9062Z" fill="white"/>
<path d="M42.3299 56.1516C45.4025 56.1516 48.3122 56.8715 50.9317 58.1225C51.845 55.897 52.3547 53.4534 52.3547 50.8861C52.3547 40.5952 44.2344 32.2461 34.2096 32.2461C24.1848 32.2461 16.0645 40.5879 16.0645 50.8861C16.0645 57.5552 19.491 63.3952 24.6167 66.6897C28.1565 60.3988 34.7618 56.1516 42.3299 56.1516Z" fill="white"/>
<path d="M54.3248 63.2207C51.1248 60.3189 46.9337 58.5371 42.3248 58.5371C32.3071 58.5371 24.1797 66.8789 24.1797 77.1771C24.1797 87.4753 32.3 95.8171 42.3248 95.8171C46.9337 95.8171 51.1248 94.0426 54.3248 91.1335C51.1036 87.4171 49.1213 82.5371 49.1213 77.1771C49.1213 71.8171 51.0965 66.9371 54.3248 63.2207Z" fill="white"/>
<path d="M60.0207 61.3594C54.8809 64.6466 51.4473 70.4939 51.4473 77.1776C51.4473 87.4685 59.5676 95.8176 69.5924 95.8176C79.6172 95.8176 87.7375 87.4757 87.7375 77.1776C87.7375 74.6176 87.2349 72.1739 86.3216 69.9485C83.7092 71.1921 80.8066 71.9121 77.7411 71.9121C70.1659 71.9121 63.5605 67.6576 60.0207 61.3594Z" fill="white"/>
<path d="M77.7414 32.2461C77.267 32.2461 76.7927 32.2825 76.3254 32.3188C76.4033 33.0534 76.4458 33.7879 76.4458 34.5443C76.4458 44.6897 69.4086 53.1843 60.0918 55.1406C61.9679 63.3806 69.1467 69.5261 77.7414 69.5261C87.7591 69.5261 95.8865 61.1843 95.8865 50.8861C95.8865 40.5879 87.7661 32.2461 77.7414 32.2461Z" fill="white"/>
</g>
<defs>
<clipPath id="clip0_292_3057">
<rect width="80" height="80" fill="white" transform="translate(16 16)"/>
</clipPath>
</defs>
</svg>
