<svg width="20" height="22" viewBox="0 0 20 22" fill="none" xmlns="http://www.w3.org/2000/svg">
<path d="M19.8 5.33054V9.12083C19.1113 9.05596 18.2185 8.90714 17.2275 8.55654C15.9353 8.101 14.9736 7.47707 14.3434 6.99482V14.6589L14.328 14.6341C14.3394 14.7858 14.3434 14.9408 14.3434 15.0958C14.3434 18.9033 11.1278 22 7.17194 22C3.2166 22 0 18.9033 0 15.0958C0 11.2884 3.2166 8.1902 7.17194 8.1902C7.5584 8.1902 7.93893 8.22072 8.31053 8.27844V12.0148C7.9528 11.8918 7.57129 11.8255 7.17194 11.8255C5.29955 11.8255 3.77499 13.2923 3.77499 15.0958C3.77499 16.8994 5.29955 18.3671 7.17194 18.3671C9.04383 18.3671 10.5699 16.8994 10.5699 15.0958C10.5699 15.0286 10.5674 14.9618 10.5634 14.8945V0H14.4995C14.5133 0.321502 14.5272 0.643958 14.5411 0.964983C14.5678 1.59749 14.8022 2.20329 15.2085 2.70033C15.6876 3.28371 16.3917 3.96297 17.3836 4.50485C18.3106 5.01047 19.1821 5.22799 19.8 5.33054Z" fill="#2F3031"/>
</svg>
