<svg width="22" height="24" viewBox="0 0 22 24" fill="none" xmlns="http://www.w3.org/2000/svg">
<path d="M22 5.81514V9.95C21.2348 9.87923 20.2427 9.71688 19.1417 9.3344C17.7059 8.83745 16.6374 8.15681 15.9371 7.63071V15.9915L15.92 15.9644C15.9327 16.1299 15.9371 16.299 15.9371 16.4682C15.9371 20.6218 12.3642 24 7.96882 24C3.574 24 0 20.6218 0 16.4682C0 12.3146 3.574 8.93476 7.96882 8.93476C8.39823 8.93476 8.82103 8.96806 9.23392 9.03103V13.1071C8.83644 12.9728 8.41254 12.9005 7.96882 12.9005C5.88839 12.9005 4.19443 14.5006 4.19443 16.4682C4.19443 18.4357 5.88839 20.0369 7.96882 20.0369C10.0487 20.0369 11.7443 18.4357 11.7443 16.4682C11.7443 16.3948 11.7416 16.3219 11.7372 16.2486V0H16.1105C16.1259 0.35073 16.1413 0.7025 16.1567 1.05271C16.1865 1.74272 16.4469 2.40359 16.8983 2.94582C17.4307 3.58223 18.213 4.32324 19.3151 4.91438C20.3451 5.46597 21.3135 5.70326 22 5.81514Z" fill="#2F3031"/>
</svg>
